
<svg width="16" height="16" viewBox="0 0 24 24" fill="none" xmlns="http://www.w3.org/2000/svg">
  <path d="M12 0.297C5.373 0.297 0 5.67 0 12.297C0 17.667 3.438 22.137 8.205 23.742C8.805 23.855 9.025 23.512 9.025 23.222C9.025 22.964 9.014 22.243 9.009 21.263C5.672 21.967 4.968 19.548 4.968 19.548C4.422 18.203 3.633 17.89 3.633 17.89C2.545 17.172 3.717 17.188 3.717 17.188C4.924 17.28 5.543 18.448 5.543 18.448C6.632 20.206 8.349 19.734 9.006 19.45C9.112 18.687 9.432 18.186 9.785 17.919C7.124 17.652 4.344 16.601 4.344 11.799C4.344 10.465 4.841 9.375 5.633 8.527C5.508 8.261 5.096 7.014 5.741 5.271C5.741 5.271 6.787 4.972 9.002 6.623C9.977 6.346 11.036 6.211 12.095 6.205C13.154 6.211 14.214 6.346 15.191 6.623C17.402 4.972 18.445 5.271 18.445 5.271C19.094 7.014 18.681 8.261 18.556 8.527C19.351 9.375 19.844 10.465 19.844 11.799C19.844 16.615 17.057 17.646 14.385 17.906C14.822 18.277 15.221 19.007 15.221 20.061C15.221 21.515 15.206 22.899 15.206 23.222C15.206 23.516 15.423 23.863 16.033 23.741C20.795 22.132 24 17.662 24 12.297C24 5.67 18.627 0.297 12 0.297Z" fill="white"/>
</svg>